<mxfile host="app.diagrams.net" agent="Mozilla/5.0 (Macintosh; Intel Mac OS X 10_15_7) AppleWebKit/537.36 (KHTML, like Gecko) Chrome/138.0.0.0 Safari/537.36" version="28.1.0">
  <diagram name="Page-1" id="1gjuHI2LXRJzn0-wMM_W">
    <mxGraphModel dx="740" dy="468" grid="0" gridSize="10" guides="1" tooltips="1" connect="1" arrows="1" fold="1" page="1" pageScale="1" pageWidth="827" pageHeight="1169" math="0" shadow="0">
      <root>
        <mxCell id="0" />
        <mxCell id="1" parent="0" />
        <mxCell id="acQIqRp4zamEOndhZSHe-1" value="Jobs" style="rounded=1;whiteSpace=wrap;html=1;" parent="1" vertex="1">
          <mxGeometry x="520" y="100" width="120" height="60" as="geometry" />
        </mxCell>
        <mxCell id="acQIqRp4zamEOndhZSHe-11" style="edgeStyle=orthogonalEdgeStyle;rounded=0;orthogonalLoop=1;jettySize=auto;html=1;entryX=0;entryY=0.5;entryDx=0;entryDy=0;" parent="1" source="acQIqRp4zamEOndhZSHe-2" target="acQIqRp4zamEOndhZSHe-3" edge="1">
          <mxGeometry relative="1" as="geometry" />
        </mxCell>
        <mxCell id="acQIqRp4zamEOndhZSHe-2" value="Linkedin Messages" style="rounded=1;whiteSpace=wrap;html=1;" parent="1" vertex="1">
          <mxGeometry x="118" y="100" width="120" height="60" as="geometry" />
        </mxCell>
        <mxCell id="acQIqRp4zamEOndhZSHe-7" style="edgeStyle=orthogonalEdgeStyle;rounded=0;orthogonalLoop=1;jettySize=auto;html=1;entryX=0;entryY=0.5;entryDx=0;entryDy=0;" parent="1" source="acQIqRp4zamEOndhZSHe-3" target="acQIqRp4zamEOndhZSHe-1" edge="1">
          <mxGeometry relative="1" as="geometry" />
        </mxCell>
        <mxCell id="acQIqRp4zamEOndhZSHe-8" style="edgeStyle=orthogonalEdgeStyle;rounded=0;orthogonalLoop=1;jettySize=auto;html=1;entryX=0;entryY=0.5;entryDx=0;entryDy=0;" parent="1" source="acQIqRp4zamEOndhZSHe-3" target="acQIqRp4zamEOndhZSHe-4" edge="1">
          <mxGeometry relative="1" as="geometry" />
        </mxCell>
        <mxCell id="acQIqRp4zamEOndhZSHe-9" style="edgeStyle=orthogonalEdgeStyle;rounded=0;orthogonalLoop=1;jettySize=auto;html=1;entryX=0;entryY=0.5;entryDx=0;entryDy=0;" parent="1" source="acQIqRp4zamEOndhZSHe-3" target="acQIqRp4zamEOndhZSHe-5" edge="1">
          <mxGeometry relative="1" as="geometry" />
        </mxCell>
        <mxCell id="acQIqRp4zamEOndhZSHe-10" style="edgeStyle=orthogonalEdgeStyle;rounded=0;orthogonalLoop=1;jettySize=auto;html=1;entryX=0;entryY=0.5;entryDx=0;entryDy=0;" parent="1" source="acQIqRp4zamEOndhZSHe-3" target="acQIqRp4zamEOndhZSHe-6" edge="1">
          <mxGeometry relative="1" as="geometry" />
        </mxCell>
        <mxCell id="acQIqRp4zamEOndhZSHe-3" value="Network" style="rounded=1;whiteSpace=wrap;html=1;" parent="1" vertex="1">
          <mxGeometry x="320" y="220" width="120" height="60" as="geometry" />
        </mxCell>
        <mxCell id="acQIqRp4zamEOndhZSHe-4" value="Promotions" style="rounded=1;whiteSpace=wrap;html=1;" parent="1" vertex="1">
          <mxGeometry x="520" y="180" width="120" height="60" as="geometry" />
        </mxCell>
        <mxCell id="acQIqRp4zamEOndhZSHe-5" value="Money" style="rounded=1;whiteSpace=wrap;html=1;" parent="1" vertex="1">
          <mxGeometry x="520" y="260" width="120" height="60" as="geometry" />
        </mxCell>
        <mxCell id="acQIqRp4zamEOndhZSHe-6" value="Skills" style="rounded=1;whiteSpace=wrap;html=1;" parent="1" vertex="1">
          <mxGeometry x="520" y="340" width="120" height="60" as="geometry" />
        </mxCell>
        <mxCell id="RzTWsTEkK6UXO_YBdQNM-5" style="edgeStyle=orthogonalEdgeStyle;rounded=0;orthogonalLoop=1;jettySize=auto;html=1;entryX=0;entryY=0.5;entryDx=0;entryDy=0;" edge="1" parent="1" source="RzTWsTEkK6UXO_YBdQNM-1" target="acQIqRp4zamEOndhZSHe-3">
          <mxGeometry relative="1" as="geometry" />
        </mxCell>
        <mxCell id="RzTWsTEkK6UXO_YBdQNM-1" value="Provide value for free" style="rounded=1;whiteSpace=wrap;html=1;" vertex="1" parent="1">
          <mxGeometry x="118" y="340" width="120" height="60" as="geometry" />
        </mxCell>
        <mxCell id="RzTWsTEkK6UXO_YBdQNM-9" style="edgeStyle=orthogonalEdgeStyle;rounded=0;orthogonalLoop=1;jettySize=auto;html=1;entryX=0;entryY=0.5;entryDx=0;entryDy=0;" edge="1" parent="1" source="RzTWsTEkK6UXO_YBdQNM-2" target="acQIqRp4zamEOndhZSHe-3">
          <mxGeometry relative="1" as="geometry" />
        </mxCell>
        <mxCell id="RzTWsTEkK6UXO_YBdQNM-2" value="Attend in-person events" style="rounded=1;whiteSpace=wrap;html=1;" vertex="1" parent="1">
          <mxGeometry x="118" y="260" width="120" height="60" as="geometry" />
        </mxCell>
        <mxCell id="RzTWsTEkK6UXO_YBdQNM-7" style="edgeStyle=orthogonalEdgeStyle;rounded=0;orthogonalLoop=1;jettySize=auto;html=1;" edge="1" parent="1" source="RzTWsTEkK6UXO_YBdQNM-4" target="acQIqRp4zamEOndhZSHe-3">
          <mxGeometry relative="1" as="geometry" />
        </mxCell>
        <mxCell id="RzTWsTEkK6UXO_YBdQNM-4" value="Follow up on leads" style="rounded=1;whiteSpace=wrap;html=1;" vertex="1" parent="1">
          <mxGeometry x="118" y="180" width="120" height="60" as="geometry" />
        </mxCell>
      </root>
    </mxGraphModel>
  </diagram>
</mxfile>
